<svg xmlns="http://www.w3.org/2000/svg" width="207.012" height="81.204" viewBox="0 0 207.012 81.204"><g transform="translate(82.045 30.285)"><path d="M188.008,98.286h-3a.31.31,0,0,0-.307.307v8.872l-4.034-9a.311.311,0,0,0-.279-.184h-3.6a.306.306,0,0,0-.307.307v17.22a.31.31,0,0,0,.307.307h3.008a.31.31,0,0,0,.307-.307V106.02l4.492,9.916a.306.306,0,0,0,.279.179h3.147a.31.31,0,0,0,.307-.307V98.592A.323.323,0,0,0,188.008,98.286Z" transform="translate(-176.48 -98.046)" fill="#90e900"/><path d="M215.18,98.29h-3.292a.31.31,0,0,0-.307.307v12.042c0,1.518-.625,2.193-2.031,2.193-1.384,0-2-.675-2-2.193V98.6a.306.306,0,0,0-.307-.307h-3.292a.31.31,0,0,0-.307.307v12.07c0,3.677,2.1,5.7,5.915,5.7s5.937-2.026,5.937-5.7V98.6A.315.315,0,0,0,215.18,98.29Z" transform="translate(-188.484 -98.05)" fill="#90e900"/><path d="M238.9,98.29h-10.97a.31.31,0,0,0-.307.307V101.5a.306.306,0,0,0,.307.307h3.532v14a.31.31,0,0,0,.307.307h3.292a.31.31,0,0,0,.307-.307v-14H238.9a.31.31,0,0,0,.307-.307V98.6A.31.31,0,0,0,238.9,98.29Z" transform="translate(-199.083 -98.05)" fill="#90e900"/><path d="M259.507,108.311c1.663-.753,2.5-2.282,2.5-4.553,0-3.521-2.182-5.457-6.149-5.457h-4.771a.31.31,0,0,0-.307.307v17.22a.31.31,0,0,0,.307.307h3.292a.31.31,0,0,0,.307-.307v-6.7h1.06l2.784,6.819a.309.309,0,0,0,.285.19h3.532a.3.3,0,0,0,.257-.14.314.314,0,0,0,.028-.29Zm-1.406-4.6c0,1.417-.642,2.076-2.026,2.076h-1.384v-4.152h1.384C257.454,101.631,258.1,102.29,258.1,103.707Z" transform="translate(-209.32 -98.054)" fill="#90e900"/><path d="M278.479,98.29h-3.292a.31.31,0,0,0-.307.307v17.22a.31.31,0,0,0,.307.307h3.292a.31.31,0,0,0,.307-.307V98.6A.306.306,0,0,0,278.479,98.29Z" transform="translate(-219.972 -98.05)" fill="#90e900"/><path d="M292.044,105.008c-1.356-.725-2.528-1.356-2.528-2.232a1.39,1.39,0,0,1,1.507-1.574c1,0,1.613.608,2.115,2.1a.305.305,0,0,0,.379.2l2.957-.859a.307.307,0,0,0,.212-.368,5.455,5.455,0,0,0-5.6-4.414c-3.488,0-5.485,1.869-5.485,5.128,0,2.829,2.327,4.1,4.375,5.212,1.6.871,2.969,1.618,2.969,2.9a1.62,1.62,0,0,1-1.719,1.741c-.859,0-1.9-.675-2.249-2.561a.3.3,0,0,0-.134-.2.292.292,0,0,0-.234-.045l-3.242.692a.282.282,0,0,0-.2.139.3.3,0,0,0-.033.24c.865,3.32,2.913,5.072,5.926,5.072,3.571,0,5.792-2,5.792-5.223C296.865,107.586,294.192,106.158,292.044,105.008Z" transform="translate(-224.502 -97.86)" fill="#90e900"/><path d="M315.576,98.29h-4.749a.31.31,0,0,0-.307.307v17.22a.31.31,0,0,0,.307.307h3.292a.31.31,0,0,0,.307-.307V109.21h1.144c4.09,0,6.345-1.942,6.345-5.457S319.666,98.29,315.576,98.29Zm.312,7.583h-1.456v-4.246h1.456a2.123,2.123,0,1,1,0,4.246Z" transform="translate(-235.725 -98.05)" fill="#90e900"/><path d="M339.177,97.86c-3.761,0-5.747,2.1-5.747,6.082V110.1c0,3.979,1.987,6.082,5.747,6.082s5.747-2.1,5.747-6.082v-6.155C344.919,99.964,342.933,97.86,339.177,97.86Zm-1.841,5.653c0-1.763.737-2.126,1.836-2.126s1.836.363,1.836,2.126v7.014c0,1.763-.737,2.126-1.836,2.126s-1.836-.363-1.836-2.126Z" transform="translate(-245.851 -97.86)" fill="#90e900"/><path d="M366.427,108.311c1.663-.753,2.5-2.282,2.5-4.553,0-3.521-2.182-5.457-6.149-5.457h-4.771a.31.31,0,0,0-.307.307v17.22a.31.31,0,0,0,.307.307H361.3a.31.31,0,0,0,.307-.307v-6.7h1.06l2.784,6.819a.309.309,0,0,0,.285.19h3.532a.3.3,0,0,0,.257-.14.314.314,0,0,0,.028-.29Zm-1.406-4.6c0,1.417-.642,2.076-2.026,2.076h-1.384v-4.152H363C364.379,101.631,365.021,102.29,365.021,103.707Z" transform="translate(-256.578 -98.054)" fill="#90e900"/><path d="M390.947,98.29h-10.97a.31.31,0,0,0-.307.307V101.5a.306.306,0,0,0,.307.307h3.532v14a.31.31,0,0,0,.307.307h3.292a.31.31,0,0,0,.307-.307v-14h3.532a.31.31,0,0,0,.307-.307V98.6A.3.3,0,0,0,390.947,98.29Z" transform="translate(-266.288 -98.05)" fill="#90e900"/></g><g transform="translate(82.012 52.019)"><path d="M179.891,137.11h-3.3a.168.168,0,0,0-.167.167v11.986a.168.168,0,0,0,.167.167h2.293a.168.168,0,0,0,.167-.167v-4.648h.848c2.818,0,4.369-1.334,4.369-3.75S182.709,137.11,179.891,137.11Zm.218,5.279h-1.06v-3.052h1.06a1.526,1.526,0,1,1,0,3.052Z" transform="translate(-176.42 -136.943)"/><path d="M199.332,147.066h-3.984v-2.824h2.874a.168.168,0,0,0,.167-.167V142.05a.168.168,0,0,0-.167-.167h-2.874V139.46h3.817a.168.168,0,0,0,.167-.167v-2.026a.168.168,0,0,0-.167-.167h-6.278a.168.168,0,0,0-.167.167v11.986a.168.168,0,0,0,.167.167h6.439a.168.168,0,0,0,.167-.167v-2.026A.166.166,0,0,0,199.332,147.066Z" transform="translate(-183.624 -136.938)"/><path d="M214.305,144.007a3.082,3.082,0,0,0,1.758-3.147c0-2.455-1.462-3.75-4.235-3.75h-3.32a.168.168,0,0,0-.167.167v11.986a.168.168,0,0,0,.167.167H210.8a.168.168,0,0,0,.167-.167v-4.715h.815l1.953,4.777a.165.165,0,0,0,.156.106h2.455a.175.175,0,0,0,.139-.073.191.191,0,0,0,.017-.156Zm-.865-3.181a1.3,1.3,0,0,1-1.462,1.5h-1.01v-2.991h1.01A1.3,1.3,0,0,1,213.44,140.826Z" transform="translate(-190.528 -136.943)"/><path d="M231.774,137.11H225.8a.168.168,0,0,0-.167.167v11.986a.168.168,0,0,0,.167.167h2.293a.168.168,0,0,0,.167-.167v-5.011h2.723a.168.168,0,0,0,.167-.167V142.06a.168.168,0,0,0-.167-.167h-2.723V139.47h3.521a.168.168,0,0,0,.167-.167v-2.026A.176.176,0,0,0,231.774,137.11Z" transform="translate(-198.17 -136.943)"/><path d="M242.441,136.81c-2.623,0-3.951,1.406-3.951,4.185v4.286c0,2.773,1.328,4.185,3.951,4.185s3.951-1.406,3.951-4.185V141C246.391,138.216,245.063,136.81,242.441,136.81Zm-1.328,3.884c0-1.267.53-1.529,1.328-1.529s1.328.257,1.328,1.529v4.883c0,1.267-.53,1.529-1.328,1.529s-1.328-.257-1.328-1.529Z" transform="translate(-203.854 -136.81)"/><path d="M262.085,144.007a3.082,3.082,0,0,0,1.758-3.147c0-2.455-1.462-3.75-4.235-3.75h-3.32a.168.168,0,0,0-.167.167v11.986a.168.168,0,0,0,.167.167h2.293a.168.168,0,0,0,.167-.167v-4.715h.815l1.947,4.777a.171.171,0,0,0,.156.106h2.455a.175.175,0,0,0,.14-.073.191.191,0,0,0,.017-.156Zm-.865-3.181a1.3,1.3,0,0,1-1.462,1.5h-1.01v-2.991h1.01A1.3,1.3,0,0,1,261.22,140.826Z" transform="translate(-211.647 -136.943)"/><path d="M284.408,137.11h-3.2a.172.172,0,0,0-.162.123l-1.931,7.327-1.931-7.327a.167.167,0,0,0-.162-.123h-3.2a.168.168,0,0,0-.167.167v11.986a.168.168,0,0,0,.167.167h1.959a.168.168,0,0,0,.167-.167V141.01l2.148,8.3a.167.167,0,0,0,.162.123h1.724a.168.168,0,0,0,.162-.123l2.148-8.3v8.259a.168.168,0,0,0,.167.167h1.959a.168.168,0,0,0,.167-.167V137.283A.174.174,0,0,0,284.408,137.11Z" transform="translate(-219.395 -136.943)"/><path d="M302.825,137.238a.167.167,0,0,0-.162-.128h-2.941a.162.162,0,0,0-.162.128l-2.974,11.986a.166.166,0,0,0,.156.206h2.21a.163.163,0,0,0,.162-.123l.614-2.4h2.913l.552,2.394a.162.162,0,0,0,.162.128h2.193a.159.159,0,0,0,.128-.061.143.143,0,0,0,.028-.14Zm-.737,7.31H300.23l.937-4.018Z" transform="translate(-229.531 -136.943)"/><path d="M323.555,137.11h-2.093a.168.168,0,0,0-.167.167v6.406l-2.9-6.473a.164.164,0,0,0-.151-.1h-2.505a.168.168,0,0,0-.167.167v11.986a.168.168,0,0,0,.167.167h2.092a.168.168,0,0,0,.167-.167v-7.042l3.22,7.109a.164.164,0,0,0,.151.1h2.193a.168.168,0,0,0,.167-.167V137.277A.173.173,0,0,0,323.555,137.11Z" transform="translate(-237.923 -136.943)"/><path d="M339.351,141.2h2.293a.2.2,0,0,0,.167-.2c0-2.773-1.328-4.185-3.951-4.185s-3.951,1.406-3.951,4.185v4.286c0,2.773,1.328,4.185,3.951,4.185s3.951-1.406,3.951-4.185v-.5a.168.168,0,0,0-.167-.167h-2.293a.168.168,0,0,0-.167.167v.8c0,1.267-.53,1.529-1.328,1.529s-1.328-.257-1.328-1.529V140.7c0-1.267.53-1.529,1.328-1.529s1.328.257,1.328,1.529v.335A.171.171,0,0,0,339.351,141.2Z" transform="translate(-246.029 -136.81)"/><path d="M357.407,147.066h-3.984v-2.824H356.3a.168.168,0,0,0,.167-.167V142.05a.168.168,0,0,0-.167-.167h-2.874V139.46h3.817a.168.168,0,0,0,.167-.167v-2.026a.168.168,0,0,0-.167-.167h-6.272a.168.168,0,0,0-.167.167v11.986a.168.168,0,0,0,.167.167h6.439a.168.168,0,0,0,.167-.167v-2.026A.167.167,0,0,0,357.407,147.066Z" transform="translate(-253.494 -136.938)"/><path d="M370.266,141.786c-.96-.513-1.786-.954-1.786-1.6a1.011,1.011,0,0,1,1.094-1.144c.72,0,1.161.435,1.518,1.5a.17.17,0,0,0,.206.106l2.059-.6a.169.169,0,0,0,.117-.2,3.754,3.754,0,0,0-3.85-3.036c-2.394,0-3.767,1.283-3.767,3.521,0,1.942,1.607,2.812,3.019,3.588,1.122.614,2.093,1.138,2.093,2.059a1.188,1.188,0,0,1-1.244,1.261c-.619,0-1.367-.48-1.613-1.825a.144.144,0,0,0-.073-.106.173.173,0,0,0-.128-.022l-2.254.48a.183.183,0,0,0-.106.073.2.2,0,0,0-.022.128c.6,2.288,2.009,3.493,4.079,3.493,2.461,0,3.984-1.373,3.984-3.588C373.6,143.566,371.75,142.579,370.266,141.786Z" transform="translate(-260.003 -136.814)"/></g><path d="M89.658,118.607l-8.409-5.178-5.39-3.32a1.965,1.965,0,0,0-2.7.642l-5.178,8.409a1.965,1.965,0,0,0,.642,2.7l3.722,2.293L70.2,127.636l-10.691-6.584-8.61-5.3-.368-.223a1.965,1.965,0,0,0-2.7.642L29.739,145.548a1.965,1.965,0,0,0,.642,2.7l8.978,5.524a1.964,1.964,0,0,0,2.7-.642L53.594,134.4l19.1,11.763a1.957,1.957,0,0,0,2.7-.642l.647-1.055,4.877-7.924,4.2-6.819,5.178-8.409A1.955,1.955,0,0,0,89.658,118.607Z" transform="translate(-29.447 -72.86)"/><path d="M131.931,49.4l-8.978-5.524a1.965,1.965,0,0,0-2.7.642L106.5,66.852l-9.8-6.038a1.782,1.782,0,0,0-.3-.229l-8.978-5.524a1.965,1.965,0,0,0-2.7.642L69.769,79.988a1.965,1.965,0,0,0,.642,2.7l8.978,5.524a1.965,1.965,0,0,0,2.7-.642l8.376-13.61,19.1,11.763a1.965,1.965,0,0,0,2.7-.642l.123-.2,5.4-8.777L132.567,52.1A1.946,1.946,0,0,0,131.931,49.4Z" transform="translate(-47.14 -43.587)" fill="#90e900"/></svg>